<?xml version="1.0" standalone="no"?><!DOCTYPE svg PUBLIC "-//W3C//DTD SVG 1.1//EN" "http://www.w3.org/Graphics/SVG/1.1/DTD/svg11.dtd"><svg t="1539780152398" class="icon" style="" viewBox="0 0 1024 1024" version="1.1" xmlns="http://www.w3.org/2000/svg" p-id="1077" xmlns:xlink="http://www.w3.org/1999/xlink" width="200" height="200"><defs><style type="text/css"></style></defs><path d="M670.4 606.4C712.7 564.1 736 507.8 736 448s-23.3-116.1-65.6-158.4C628.1 247.3 571.8 224 512 224c-59.8 0-116.1 23.3-158.4 65.6C311.3 331.9 288 388.2 288 448s23.3 116.1 65.6 158.4C395.9 648.7 452.2 672 512 672c59.8 0 116.1-23.3 158.4-65.6zM352 448c0-88.2 71.8-160 160-160s160 71.8 160 160-71.8 160-160 160-160-71.8-160-160z" p-id="1078" fill="#dbdbdb"></path><path d="M864 896h-50.7L700.1 782.8C817 717 896 591.7 896 448c0-212.1-171.9-384-384-384S128 235.9 128 448c0 143.7 79 269 195.9 334.8L210.7 896H160c-17.7 0-32 14.3-32 32s14.3 32 32 32h704c17.7 0 32-14.3 32-32s-14.3-32-32-32zM217.1 572.5C200.5 533.1 192 491.2 192 448s8.5-85.1 25.1-124.5c16.1-38.1 39.2-72.3 68.6-101.7 29.4-29.4 63.6-52.5 101.7-68.6C426.9 136.5 468.8 128 512 128c43.2 0 85.1 8.5 124.5 25.1 38.1 16.1 72.3 39.2 101.7 68.6 29.4 29.4 52.5 63.6 68.6 101.7C823.5 362.9 832 404.8 832 448c0 43.2-8.5 85.1-25.1 124.5-16.1 38.1-39.2 72.3-68.6 101.7-29.4 29.4-63.6 52.5-101.7 68.6C597.1 759.5 555.2 768 512 768c-43.2 0-85.1-8.5-124.5-25.1-38.1-16.1-72.3-39.2-101.7-68.6-29.5-29.4-52.6-63.7-68.7-101.8z m169.2 238.4C425.7 824.6 468 832 512 832s86.3-7.4 125.7-21.1l85.1 85.1H301.3l85-85.1z" p-id="1079" fill="#dbdbdb"></path></svg>